<svg width="16" height="16" viewBox="0 0 16 16" fill="none" xmlns="http://www.w3.org/2000/svg">
<mask id="path-1-inside-1_763_69176" fill="white">
<path d="M8 0.666992C10.9455 0.666992 13.333 3.05448 13.333 6V12H14.667C15.035 12.0002 15.333 12.2989 15.333 12.667C15.3328 13.0349 15.0349 13.3328 14.667 13.333H10.3066C10.1448 14.4637 9.17544 15.333 8 15.333C6.82456 15.333 5.85515 14.4637 5.69336 13.333H1.33301C0.965076 13.3328 0.667168 13.0349 0.666992 12.667C0.666992 12.2989 0.964968 12.0002 1.33301 12H2.66699V6C2.66699 3.05448 5.05448 0.666992 8 0.666992ZM7.05762 13.333C7.19499 13.7212 7.56472 14 8 14C8.43528 14 8.80501 13.7212 8.94238 13.333H7.05762ZM8 2C5.79086 2 4 3.79086 4 6V12H12V6C12 3.79086 10.2091 2 8 2Z"/>
</mask>
<path d="M8 0.666992C10.9455 0.666992 13.333 3.05448 13.333 6V12H14.667C15.035 12.0002 15.333 12.2989 15.333 12.667C15.3328 13.0349 15.0349 13.3328 14.667 13.333H10.3066C10.1448 14.4637 9.17544 15.333 8 15.333C6.82456 15.333 5.85515 14.4637 5.69336 13.333H1.33301C0.965076 13.3328 0.667168 13.0349 0.666992 12.667C0.666992 12.2989 0.964968 12.0002 1.33301 12H2.66699V6C2.66699 3.05448 5.05448 0.666992 8 0.666992ZM7.05762 13.333C7.19499 13.7212 7.56472 14 8 14C8.43528 14 8.80501 13.7212 8.94238 13.333H7.05762ZM8 2C5.79086 2 4 3.79086 4 6V12H12V6C12 3.79086 10.2091 2 8 2Z" fill="#575179"/>
<path d="M8 0.666992L8 -0.333008H8V0.666992ZM13.333 12H12.333V13H13.333V12ZM14.667 12L14.6675 11H14.667V12ZM15.333 12.667L16.333 12.6675V12.667H15.333ZM14.667 13.333L14.667 14.333L14.6675 14.333L14.667 13.333ZM10.3066 13.333V12.333H9.43955L9.31672 13.1914L10.3066 13.333ZM8 15.333L8 16.333L8 16.333L8 15.333ZM5.69336 13.333L6.68328 13.1914L6.56045 12.333H5.69336V13.333ZM1.33301 13.333L1.33253 14.333H1.33301V13.333ZM0.666992 12.667L-0.333008 12.667L-0.333008 12.6675L0.666992 12.667ZM1.33301 12L1.33301 11L1.33253 11L1.33301 12ZM2.66699 12V13H3.66699V12H2.66699ZM7.05762 13.333V12.333H5.64301L6.1149 13.6666L7.05762 13.333ZM8 14L8 15L8 15L8 14ZM8.94238 13.333L9.8851 13.6666L10.357 12.333H8.94238V13.333ZM8 2L8 1H8V2ZM4 12H3V13H4V12ZM12 12V13H13V12H12ZM8 0.666992L8 1.66699C10.3932 1.66699 12.333 3.60676 12.333 6H13.333H14.333C14.333 2.50219 11.4978 -0.333008 8 -0.333008L8 0.666992ZM13.333 6H12.333V12H13.333H14.333V6H13.333ZM13.333 12V13H14.667V12V11H13.333V12ZM14.667 12L14.6665 13C14.4812 12.9999 14.333 12.8498 14.333 12.667H15.333H16.333C16.333 11.7481 15.5889 11.0004 14.6675 11L14.667 12ZM15.333 12.667L14.333 12.6665C14.3331 12.4825 14.4825 12.3331 14.6665 12.333L14.667 13.333L14.6675 14.333C15.5873 14.3326 16.3326 13.5873 16.333 12.6675L15.333 12.667ZM14.667 13.333V12.333H10.3066V13.333V14.333H14.667V13.333ZM10.3066 13.333L9.31672 13.1914C9.22416 13.8382 8.66913 14.333 8 14.333L8 15.333L8 16.333C9.68176 16.333 11.0655 15.0892 11.2966 13.4747L10.3066 13.333ZM8 15.333V14.333C7.33087 14.333 6.77584 13.8382 6.68328 13.1914L5.69336 13.333L4.70344 13.4747C4.93447 15.0892 6.31824 16.333 8 16.333V15.333ZM5.69336 13.333V12.333H1.33301V13.333V14.333H5.69336V13.333ZM1.33301 13.333L1.33349 12.333C1.51747 12.3331 1.6669 12.4825 1.66699 12.6665L0.666992 12.667L-0.333008 12.6675C-0.332567 13.5873 0.412686 14.3326 1.33253 14.333L1.33301 13.333ZM0.666992 12.667H1.66699C1.66699 12.8498 1.51879 12.9999 1.33349 13L1.33301 12L1.33253 11C0.411146 11.0004 -0.333008 11.7481 -0.333008 12.667H0.666992ZM1.33301 12V13H2.66699V12V11H1.33301V12ZM2.66699 12H3.66699V6H2.66699H1.66699V12H2.66699ZM2.66699 6H3.66699C3.66699 3.60676 5.60676 1.66699 8 1.66699V0.666992V-0.333008C4.50219 -0.333008 1.66699 2.50219 1.66699 6H2.66699ZM7.05762 13.333L6.1149 13.6666C6.38856 14.44 7.12612 15 8 15V14V13L8.00034 12.9994L7.05762 13.333ZM8 14L8 15C8.87388 15 9.61144 14.44 9.8851 13.6666L8.94238 13.333L7.99966 12.9994L8 13L8 14ZM8.94238 13.333V12.333H7.05762V13.333V14.333H8.94238V13.333ZM8 2V1C5.23857 1 3 3.23857 3 6H4H5C5 4.34314 6.34314 3 8 3V2ZM4 6H3V12H4H5V6H4ZM4 12V13H12V12V11H4V12ZM12 12H13V6H12H11V12H12ZM12 6H13C13 3.23857 10.7614 1 8 1L8 2L8 3C9.65686 3 11 4.34314 11 6H12Z" fill="#575179" mask="url(#path-1-inside-1_763_69176)"/>
</svg>
