<svg width="16" height="16" viewBox="0 0 16 16" fill="none" xmlns="http://www.w3.org/2000/svg">
<mask id="path-1-inside-1_763_69159" fill="white">
<path d="M10.667 5.66699C11.4032 5.66717 12 6.26373 12 7V13C12 13.7363 11.4032 14.3328 10.667 14.333H2C1.26362 14.333 0.666993 13.7364 0.666992 13V7C0.666992 6.26362 1.26362 5.66699 2 5.66699H10.667ZM2 13H10.667V10H2V13ZM6.33301 10.667C6.70109 10.667 6.99982 10.965 7 11.333C7 11.7012 6.7012 12 6.33301 12H3.66699C3.2988 12 3 11.7012 3 11.333C3.00018 10.965 3.29891 10.667 3.66699 10.667H6.33301ZM9 10.667C9.36808 10.667 9.66682 10.965 9.66699 11.333C9.66699 11.7012 9.36819 12 9 12H8.33301C7.96497 11.9998 7.66699 11.7011 7.66699 11.333C7.66717 10.9651 7.96508 10.6672 8.33301 10.667H9ZM14 1.66699C14.7364 1.66699 15.333 2.26363 15.333 3V9C15.333 9.73639 14.7364 10.333 14 10.333H13.333C12.9651 10.3328 12.6672 10.0349 12.667 9.66699C12.667 9.29891 12.965 9.00018 13.333 9H14V3H5.33301V4.33301C5.33301 4.70109 5.03503 4.99982 4.66699 5C4.2988 5 4 4.7012 4 4.33301V3C4 2.26374 4.59676 1.66717 5.33301 1.66699H14ZM2 8.66699H10.667V7H2V8.66699Z"/>
</mask>
<path d="M10.667 5.66699C11.4032 5.66717 12 6.26373 12 7V13C12 13.7363 11.4032 14.3328 10.667 14.333H2C1.26362 14.333 0.666993 13.7364 0.666992 13V7C0.666992 6.26362 1.26362 5.66699 2 5.66699H10.667ZM2 13H10.667V10H2V13ZM6.33301 10.667C6.70109 10.667 6.99982 10.965 7 11.333C7 11.7012 6.7012 12 6.33301 12H3.66699C3.2988 12 3 11.7012 3 11.333C3.00018 10.965 3.29891 10.667 3.66699 10.667H6.33301ZM9 10.667C9.36808 10.667 9.66682 10.965 9.66699 11.333C9.66699 11.7012 9.36819 12 9 12H8.33301C7.96497 11.9998 7.66699 11.7011 7.66699 11.333C7.66717 10.9651 7.96508 10.6672 8.33301 10.667H9ZM14 1.66699C14.7364 1.66699 15.333 2.26363 15.333 3V9C15.333 9.73639 14.7364 10.333 14 10.333H13.333C12.9651 10.3328 12.6672 10.0349 12.667 9.66699C12.667 9.29891 12.965 9.00018 13.333 9H14V3H5.33301V4.33301C5.33301 4.70109 5.03503 4.99982 4.66699 5C4.2988 5 4 4.7012 4 4.33301V3C4 2.26374 4.59676 1.66717 5.33301 1.66699H14ZM2 8.66699H10.667V7H2V8.66699Z" fill="#575179"/>
<path d="M10.667 5.66699L10.6672 4.66699H10.667V5.66699ZM12 13L13 13V13H12ZM10.667 14.333L10.667 15.333L10.6672 15.333L10.667 14.333ZM0.666992 13L-0.333008 13L-0.333008 13L0.666992 13ZM2 13H1V14H2V13ZM10.667 13V14H11.667V13H10.667ZM10.667 10H11.667V9H10.667V10ZM2 10V9H1V10H2ZM7 11.333L8 11.333L8 11.3325L7 11.333ZM3 11.333L2 11.3325V11.333H3ZM9.66699 11.333L10.667 11.333L10.667 11.3325L9.66699 11.333ZM8.33301 12L8.33253 13H8.33301V12ZM7.66699 11.333L6.66699 11.3325V11.333H7.66699ZM8.33301 10.667L8.33301 9.66699L8.33253 9.66699L8.33301 10.667ZM14 1.66699L14 0.666992H14V1.66699ZM15.333 9L16.333 9V9H15.333ZM14 10.333L14 11.333L14 11.333L14 10.333ZM13.333 10.333L13.3325 11.333H13.333V10.333ZM12.667 9.66699L11.667 9.66699L11.667 9.66747L12.667 9.66699ZM13.333 9L13.333 8L13.3325 8L13.333 9ZM14 9V10H15V9H14ZM14 3H15V2H14V3ZM5.33301 3V2H4.33301V3H5.33301ZM4.66699 5L4.66699 6L4.66747 6L4.66699 5ZM5.33301 1.66699L5.33301 0.666992L5.33277 0.666992L5.33301 1.66699ZM2 8.66699H1V9.66699H2V8.66699ZM10.667 8.66699V9.66699H11.667V8.66699H10.667ZM10.667 7H11.667V6H10.667V7ZM2 7V6H1V7H2ZM10.667 5.66699L10.6668 6.66699C10.8511 6.66704 11 6.81625 11 7H12H13C13 5.71121 11.9553 4.6673 10.6672 4.66699L10.667 5.66699ZM12 7H11V13H12H13V7H12ZM12 13L11 13C11 13.1837 10.8511 13.333 10.6668 13.333L10.667 14.333L10.6672 15.333C11.9553 15.3327 13 14.2888 13 13L12 13ZM10.667 14.333V13.333H2V14.333V15.333H10.667V14.333ZM2 14.333V13.333C1.81591 13.333 1.66699 13.1841 1.66699 13L0.666992 13L-0.333008 13C-0.333007 14.2887 0.711335 15.333 2 15.333V14.333ZM0.666992 13H1.66699V7H0.666992H-0.333008V13H0.666992ZM0.666992 7H1.66699C1.66699 6.81591 1.81591 6.66699 2 6.66699V5.66699V4.66699C0.711336 4.66699 -0.333008 5.71134 -0.333008 7H0.666992ZM2 5.66699V6.66699H10.667V5.66699V4.66699H2V5.66699ZM2 13V14H10.667V13V12H2V13ZM10.667 13H11.667V10H10.667H9.66699V13H10.667ZM10.667 10V9H2V10V11H10.667V10ZM2 10H1V13H2H3V10H2ZM6.33301 10.667V11.667C6.15024 11.667 6.00009 11.5188 6 11.3335L7 11.333L8 11.3325C7.99956 10.4111 7.25194 9.66699 6.33301 9.66699V10.667ZM7 11.333H6C6 11.1489 6.14891 11 6.33301 11V12V13C7.25348 13 8 12.2535 8 11.333H7ZM6.33301 12V11H3.66699V12V13H6.33301V12ZM3.66699 12V11C3.85109 11 4 11.1489 4 11.333H3H2C2 12.2535 2.74652 13 3.66699 13V12ZM3 11.333L4 11.3335C3.99991 11.5188 3.84976 11.667 3.66699 11.667V10.667V9.66699C2.74806 9.66699 2.00044 10.4111 2 11.3325L3 11.333ZM3.66699 10.667V11.667H6.33301V10.667V9.66699H3.66699V10.667ZM9 10.667V11.667C8.81723 11.667 8.66708 11.5188 8.66699 11.3335L9.66699 11.333L10.667 11.3325C10.6666 10.4111 9.91893 9.66699 9 9.66699V10.667ZM9.66699 11.333H8.66699C8.66699 11.1489 8.81591 11 9 11V12V13C9.92047 13 10.667 12.2535 10.667 11.333H9.66699ZM9 12V11H8.33301V12V13H9V12ZM8.33301 12L8.33349 11C8.51879 11.0001 8.66699 11.1502 8.66699 11.333H7.66699H6.66699C6.66699 12.2519 7.41115 12.9996 8.33253 13L8.33301 12ZM7.66699 11.333L8.66699 11.3335C8.6669 11.5175 8.51747 11.6669 8.33349 11.667L8.33301 10.667L8.33253 9.66699C7.41269 9.66743 6.66743 10.4127 6.66699 11.3325L7.66699 11.333ZM8.33301 10.667V11.667H9V10.667V9.66699H8.33301V10.667ZM14 1.66699L14 2.66699C14.1841 2.66699 14.333 2.8159 14.333 3H15.333H16.333C16.333 1.71135 15.2887 0.666993 14 0.666992L14 1.66699ZM15.333 3H14.333V9H15.333H16.333V3H15.333ZM15.333 9L14.333 9C14.333 9.1841 14.1841 9.33301 14 9.33301L14 10.333L14 11.333C15.2887 11.333 16.333 10.2887 16.333 9L15.333 9ZM14 10.333V9.33301H13.333V10.333V11.333H14V10.333ZM13.333 10.333L13.3335 9.33301C13.5175 9.3331 13.6669 9.48254 13.667 9.66651L12.667 9.66699L11.667 9.66747C11.6674 10.5873 12.4127 11.3326 13.3325 11.333L13.333 10.333ZM12.667 9.66699H13.667C13.667 9.84976 13.5188 9.99991 13.3335 10L13.333 9L13.3325 8C12.4111 8.00044 11.667 8.74806 11.667 9.66699H12.667ZM13.333 9V10H14V9V8H13.333V9ZM14 9H15V3H14H13V9H14ZM14 3V2H5.33301V3V4H14V3ZM5.33301 3H4.33301V4.33301H5.33301H6.33301V3H5.33301ZM5.33301 4.33301H4.33301C4.33301 4.15024 4.48121 4.00009 4.66651 4L4.66699 5L4.66747 6C5.58885 5.99956 6.33301 5.25194 6.33301 4.33301H5.33301ZM4.66699 5V4C4.85109 4 5 4.14891 5 4.33301H4H3C3 5.25348 3.74652 6 4.66699 6V5ZM4 4.33301H5V3H4H3V4.33301H4ZM4 3H5C5 2.81625 5.14887 2.66704 5.33325 2.66699L5.33301 1.66699L5.33277 0.666992C4.04465 0.6673 3 1.71122 3 3H4ZM5.33301 1.66699V2.66699H14V1.66699V0.666992H5.33301V1.66699ZM2 8.66699V9.66699H10.667V8.66699V7.66699H2V8.66699ZM10.667 8.66699H11.667V7H10.667H9.66699V8.66699H10.667ZM10.667 7V6H2V7V8H10.667V7ZM2 7H1V8.66699H2H3V7H2Z" fill="#575179" mask="url(#path-1-inside-1_763_69159)"/>
</svg>
