<svg width="16" height="16" viewBox="0 0 16 16" fill="none" xmlns="http://www.w3.org/2000/svg">
<path d="M8.33203 1.33301C8.70022 1.33301 8.99902 1.63181 8.99902 2C8.99902 2.36819 8.70022 2.66699 8.33203 2.66699H2.99902C2.81493 2.66699 2.66602 2.81591 2.66602 3V10.333C2.66602 10.5171 2.81492 10.667 2.99902 10.667H12.999C13.1831 10.667 13.332 10.5171 13.332 10.333V8C13.332 7.63181 13.6308 7.33301 13.999 7.33301C14.3672 7.33301 14.666 7.63181 14.666 8V10.333C14.666 11.2535 13.9195 12 12.999 12H8.66602V13.333H11.332C11.7002 13.333 11.999 13.6318 11.999 14C11.999 14.3682 11.7002 14.667 11.332 14.667H4.66602C4.29783 14.667 3.99902 14.3682 3.99902 14C3.99902 13.6318 4.29783 13.333 4.66602 13.333H7.33203V12H2.99902C2.07856 12 1.33203 11.2535 1.33203 10.333V3C1.33203 2.07953 2.07855 1.33301 2.99902 1.33301H8.33203ZM12.3477 1.33398C12.3732 1.33456 12.3985 1.3383 12.4238 1.3418C12.4412 1.34419 12.4587 1.34493 12.4756 1.34863C12.5023 1.35447 12.5277 1.36486 12.5537 1.37402C12.5672 1.37881 12.5816 1.3811 12.5947 1.38672C12.6198 1.39743 12.6431 1.41186 12.667 1.42578C12.68 1.43338 12.6936 1.43981 12.7061 1.44824C12.7403 1.47153 12.7733 1.49793 12.8037 1.52832L14.4707 3.19531C14.7307 3.45556 14.7306 3.87738 14.4707 4.1377C14.2104 4.39804 13.7877 4.39804 13.5273 4.1377L12.999 3.60938V6C12.999 6.36819 12.7002 6.66699 12.332 6.66699C11.964 6.66682 11.666 6.36808 11.666 6V3.6084L11.1367 4.1377C10.8764 4.39804 10.4547 4.39804 10.1943 4.1377C9.93412 3.87733 9.93403 3.45562 10.1943 3.19531L11.8613 1.52832L11.9121 1.4834C11.9186 1.47807 11.9259 1.4738 11.9326 1.46875C11.9514 1.4546 11.971 1.44183 11.9912 1.42969C12.0076 1.41987 12.024 1.41063 12.041 1.40234C12.0613 1.39243 12.0821 1.38383 12.1035 1.37598C12.1223 1.3691 12.141 1.36255 12.1602 1.35742C12.1804 1.35202 12.2008 1.34725 12.2217 1.34375C12.2457 1.33972 12.2697 1.33734 12.2939 1.33594C12.3066 1.33522 12.3192 1.33301 12.332 1.33301C12.3371 1.33301 12.3426 1.33387 12.3477 1.33398Z" fill="#6C658E"/>
</svg>
