<svg width="16" height="16" viewBox="0 0 16 16" fill="none" xmlns="http://www.w3.org/2000/svg">
<path d="M9.44824 0.67627C9.81077 0.739862 10.0537 1.08614 9.99023 1.44873L7.65625 14.7817C7.59268 15.1442 7.24724 15.387 6.88477 15.3237C6.52224 15.2601 6.27932 14.9139 6.34277 14.5513L8.67578 1.21826C8.73937 0.855755 9.08568 0.612858 9.44824 0.67627ZM4.85254 3.87061C5.1082 3.60573 5.53098 3.59843 5.7959 3.854C6.06045 4.1097 6.06797 4.53157 5.8125 4.79639L2.27539 8.45947L5.7959 11.854C6.06048 12.1096 6.06787 12.5315 5.8125 12.7964C5.55694 13.0611 5.13509 13.0684 4.87012 12.813L0.870117 8.95752C0.742843 8.83483 0.669282 8.66649 0.666016 8.48975C0.662831 8.31297 0.7298 8.14141 0.852539 8.01416L4.85254 3.87061ZM10.2031 3.854C10.468 3.59846 10.8898 3.60583 11.1455 3.87061L15.1455 8.01416C15.2683 8.14143 15.3362 8.3129 15.333 8.48975C15.3297 8.66645 15.2561 8.83484 15.1289 8.95752L11.1289 12.813C10.864 13.0684 10.4421 13.0611 10.1865 12.7964C9.93113 12.5314 9.93846 12.1096 10.2031 11.854L13.7227 8.45947L10.1865 4.79639C9.93102 4.53154 9.93849 4.10969 10.2031 3.854Z" fill="#6C658E"/>
</svg>
