<svg width="20" height="20" viewBox="0 0 20 20" fill="none" xmlns="http://www.w3.org/2000/svg">
<path d="M2.50065 3.33329V16.6666H17.5006V3.33329H2.50065ZM19.1673 16.6666C19.1673 17.5871 18.4211 18.3333 17.5006 18.3333H2.50065C1.58018 18.3333 0.833984 17.5871 0.833984 16.6666V3.33329C0.833984 2.41282 1.58018 1.66663 2.50065 1.66663H17.5006C18.4211 1.66663 19.1673 2.41283 19.1673 3.33329V16.6666Z" fill="#6C658E"/>
<path d="M18.334 6.66663C18.7942 6.66663 19.1673 7.03972 19.1673 7.49996C19.1673 7.9602 18.7942 8.33329 18.334 8.33329H1.66732C1.20708 8.33329 0.833984 7.9602 0.833984 7.49996C0.833984 7.03972 1.20708 6.66663 1.66732 6.66663H18.334Z" fill="#6C658E"/>
<path d="M6.45898 17.5V7.49996C6.45898 7.03972 6.83208 6.66663 7.29232 6.66663C7.75255 6.66663 8.12565 7.03972 8.12565 7.49996V17.5C8.12565 17.9602 7.75255 18.3333 7.29232 18.3333C6.83208 18.3333 6.45898 17.9602 6.45898 17.5Z" fill="#6C658E"/>
<path d="M11.8756 17.5V7.49996C11.8756 7.03972 12.2487 6.66663 12.709 6.66663C13.1692 6.66663 13.5423 7.03972 13.5423 7.49996V17.5C13.5423 17.9602 13.1692 18.3333 12.709 18.3333C12.2487 18.3333 11.8756 17.9602 11.8756 17.5Z" fill="#6C658E"/>
<path d="M18.334 11.6666C18.7942 11.6666 19.1673 12.0397 19.1673 12.5C19.1673 12.9602 18.7942 13.3333 18.334 13.3333H1.66732C1.20708 13.3333 0.833984 12.9602 0.833984 12.5C0.833984 12.0397 1.20708 11.6666 1.66732 11.6666H18.334Z" fill="#6C658E"/>
<path d="M0.833984 16.6666V3.33329C0.833984 2.87306 1.20708 2.49996 1.66732 2.49996C2.12755 2.49996 2.50065 2.87306 2.50065 3.33329V16.6666H17.5006V3.33329C17.5006 2.87306 17.8737 2.49996 18.334 2.49996C18.7942 2.49996 19.1673 2.87306 19.1673 3.33329V16.6666C19.1673 17.5871 18.4211 18.3333 17.5006 18.3333H2.50065C1.58018 18.3333 0.833984 17.5871 0.833984 16.6666Z" fill="#6C658E"/>
</svg>
