<svg width="16" height="16" viewBox="0 0 16 16" fill="none" xmlns="http://www.w3.org/2000/svg">
<path d="M1.99935 12.6667H13.9993V3.33333H1.99935V12.6667ZM8.66602 5.33333C9.03421 5.33333 9.33268 5.63181 9.33268 6C9.33268 6.36819 9.03421 6.66667 8.66602 6.66667H7.99935V7.66667H8.66602C9.03421 7.66667 9.33268 7.96514 9.33268 8.33333C9.33268 8.70152 9.03421 9 8.66602 9H7.99935V9.66667H8.66602C9.03421 9.66667 9.33268 9.96514 9.33268 10.3333C9.33268 10.7015 9.03421 11 8.66602 11H7.33268C6.96449 11 6.66602 10.7015 6.66602 10.3333V6C6.66602 5.63181 6.96449 5.33333 7.33268 5.33333H8.66602ZM11.9993 7C11.9993 6.81591 11.8501 6.66667 11.666 6.66667C11.4819 6.66667 11.3327 6.81591 11.3327 7V9.33333C11.3327 9.51743 11.4819 9.66667 11.666 9.66667C11.8501 9.66667 11.9993 9.51743 11.9993 9.33333V7ZM3.90169 5.29818C4.22058 5.15401 4.59326 5.11437 4.96159 5.22721C5.33087 5.34039 5.64622 5.59087 5.88411 5.94141C6.09082 6.2461 6.01172 6.66113 5.70703 6.86784C5.42143 7.06157 5.03926 7.00371 4.82227 6.74479L4.78125 6.6901L4.71289 6.60286C4.64848 6.53267 4.59672 6.50986 4.57096 6.50195C4.53557 6.49111 4.49633 6.49231 4.45052 6.51302C4.35098 6.55822 4.22757 6.70145 4.24674 6.93424C4.25973 7.09105 4.33054 7.1797 4.7194 7.45703C5.03876 7.68478 5.67639 8.10201 5.74674 8.95573C5.81074 9.73251 5.39332 10.4169 4.76367 10.7018C4.44481 10.8461 4.07212 10.8857 3.70378 10.7728C3.33437 10.6596 3.01916 10.4086 2.78125 10.0579L3.88411 9.3099C3.97953 9.45054 4.06018 9.48756 4.0944 9.49805C4.12967 9.50885 4.16851 9.50765 4.21419 9.48698C4.31359 9.44192 4.43721 9.29854 4.41797 9.0651C4.40505 8.90845 4.33433 8.8204 3.94531 8.54297C3.62603 8.31528 2.98881 7.89822 2.91797 7.04492C2.85359 6.26773 3.27188 5.58299 3.90169 5.29818ZM2.95833 9.13216C3.26302 8.92546 3.67741 9.00521 3.88411 9.3099L2.78125 10.0579C2.57462 9.75326 2.65367 9.33885 2.95833 9.13216ZM13.3327 9.33333C13.3327 10.2538 12.5865 11 11.666 11C10.7455 11 9.99935 10.2538 9.99935 9.33333V7C9.99935 6.07953 10.7455 5.33333 11.666 5.33333C12.5865 5.33333 13.3327 6.07953 13.3327 7V9.33333ZM15.3327 12.7891C15.3327 13.4578 14.7905 14 14.1217 14H1.87695C1.2082 14 0.666016 13.4578 0.666016 12.7891V3.21094C0.666016 2.54219 1.2082 2 1.87695 2H14.1217C14.7905 2 15.3327 2.54219 15.3327 3.21094V12.7891Z" fill="#6C658E"/>
</svg>
