<svg width="16" height="16" viewBox="0 0 16 16" fill="none" xmlns="http://www.w3.org/2000/svg">
<path d="M2.28125 1.4552C2.48844 1.30886 2.76141 1.29327 2.98438 1.41418L14.6514 7.74719C14.9078 7.8865 15.0431 8.17679 14.9863 8.46301C14.9293 8.74931 14.6927 8.96565 14.4023 8.99622L8.4043 9.62708L5.23926 15.004C5.0965 15.2466 4.81655 15.3739 4.54004 15.3214C4.26375 15.2688 4.04981 15.0484 4.00586 14.7706L2.00781 2.10364C1.96852 1.85327 2.07432 1.60152 2.28125 1.4552ZM5.0332 12.7247L7.4248 8.66223L7.46875 8.59583C7.57923 8.45063 7.74598 8.35649 7.92969 8.33704L12.1279 7.89465L3.53516 3.22961L5.0332 12.7247Z" fill="#6C658E"/>
</svg>
