<svg width="20" height="20" viewBox="0 0 20 20" fill="none" xmlns="http://www.w3.org/2000/svg">
<path d="M17.082 0.833008C18.2327 0.833008 19.166 1.76641 19.166 2.91699V13.75C19.166 14.9006 18.2326 15.833 17.082 15.833H16.666V17.083C16.666 18.2336 15.7326 19.167 14.582 19.167H2.91602C1.76542 19.167 0.832031 18.2336 0.832031 17.083V5.41699C0.832031 4.2664 1.76542 3.33301 2.91602 3.33301H4.16602V2.91699C4.16602 1.76641 5.0984 0.833008 6.24902 0.833008H17.082ZM2.91602 5C2.6859 5 2.49902 5.18687 2.49902 5.41699V17.083C2.49902 17.3131 2.6859 17.5 2.91602 17.5H14.582C14.8121 17.5 14.999 17.3131 14.999 17.083V5.41699C14.999 5.18687 14.8121 5 14.582 5H2.91602ZM8.70996 10.1865C9.0354 9.86109 9.56323 9.86109 9.88867 10.1865C10.7993 11.0975 10.8584 12.5701 9.97754 13.5186C9.9509 13.5515 9.92201 13.5839 9.88965 13.6133L7.7373 15.5664C6.79035 16.482 5.29046 16.4301 4.36816 15.5078C3.41659 14.5557 3.44359 12.9511 4.36816 12.0264L4.37988 12.0146C4.38071 12.0139 4.38231 12.0131 4.38379 12.0117C4.38699 12.0086 4.39134 12.003 4.39746 11.9971C4.40967 11.9853 4.42746 11.9683 4.44922 11.9473C4.49345 11.9044 4.55533 11.8442 4.62305 11.7783C4.75957 11.6456 4.9189 11.4903 5.02051 11.3887C5.34593 11.0634 5.87383 11.0634 6.19922 11.3887C6.52443 11.7141 6.52443 12.242 6.19922 12.5674C6.08837 12.6782 5.92139 12.8412 5.78516 12.9736C5.71644 13.0405 5.65421 13.1011 5.60938 13.1445C5.5873 13.1659 5.56917 13.1832 5.55664 13.1953C5.55325 13.1986 5.54947 13.2016 5.54688 13.2041C5.26213 13.4888 5.25658 14.0395 5.54688 14.3301C5.85752 14.6405 6.32321 14.6245 6.58789 14.3604L6.61719 14.332L8.74512 12.3994C9.00375 12.1338 9.01837 11.6727 8.70996 11.3643C8.38475 11.0388 8.38465 10.5119 8.70996 10.1865ZM6.24902 2.5C6.01889 2.5 5.83203 2.68687 5.83203 2.91699V3.33301H14.582C15.7326 3.33301 16.666 4.2664 16.666 5.41699V14.167H17.082C17.3122 14.167 17.499 13.9801 17.499 13.75V2.91699C17.499 2.68687 17.3122 2.5 17.082 2.5H6.24902ZM9.29883 6.74414C10.2438 5.79936 11.7656 5.84207 12.6973 6.77344C13.6234 7.69961 13.671 9.20904 12.7432 10.1553L11.9473 10.998C11.6313 11.3325 11.1041 11.3481 10.7695 11.0322C10.435 10.7162 10.4204 10.1881 10.7363 9.85352L11.5322 9.01172L11.5479 8.99414C11.8123 8.72962 11.8291 8.26397 11.5186 7.95312C11.2078 7.64242 10.7421 7.65847 10.4775 7.92285L8.44141 10.04C8.41072 10.0867 8.37599 10.1318 8.33496 10.1729C8.19123 10.3166 8.121 10.5124 8.13477 10.7168C8.14679 10.8936 8.22217 11.0716 8.36426 11.2139C8.68942 11.5392 8.68938 12.0672 8.36426 12.3926C8.03881 12.7178 7.51092 12.7179 7.18555 12.3926C6.75104 11.958 6.51117 11.398 6.47266 10.8291C6.43499 10.2714 6.59235 9.70008 6.9502 9.23145C6.98501 9.16734 7.02906 9.10691 7.08203 9.05176L9.28613 6.75684C9.28999 6.75282 9.29489 6.74808 9.29883 6.74414Z" fill="#6C658E"/>
</svg>
