<svg width="16" height="16" viewBox="0 0 16 16" fill="none" xmlns="http://www.w3.org/2000/svg">
<path d="M1.33398 11.333C1.70217 11.333 2.00098 11.6318 2.00098 12V14H4.00098C4.36917 14 4.66797 14.2988 4.66797 14.667C4.66779 15.035 4.36906 15.333 4.00098 15.333H1.33398C0.966053 15.3328 0.668145 15.0349 0.667969 14.667V12C0.667969 11.6319 0.965944 11.3332 1.33398 11.333ZM14.668 11.333C15.036 11.3332 15.334 11.6319 15.334 12V14.667C15.3338 15.0349 15.0359 15.3328 14.668 15.333H12.001C11.6329 15.333 11.3342 15.035 11.334 14.667C11.334 14.2988 11.6328 14 12.001 14H14.001V12C14.001 11.6318 14.2998 11.333 14.668 11.333ZM8.00098 2.66699C9.47363 2.66699 10.6678 3.8604 10.668 5.33301C10.668 6.26804 10.1853 7.08937 9.45703 7.56543C11.3213 8.17717 12.668 9.93117 12.668 12C12.668 12.3682 12.3692 12.667 12.001 12.667C11.6328 12.667 11.334 12.3682 11.334 12C11.334 10.1591 9.84192 8.66699 8.00098 8.66699C6.16003 8.66699 4.66797 10.1591 4.66797 12C4.66797 12.3682 4.36917 12.667 4.00098 12.667C3.63279 12.667 3.33398 12.3682 3.33398 12C3.33398 9.93149 4.68017 8.17743 6.54395 7.56543C5.81602 7.0893 5.33398 6.26775 5.33398 5.33301C5.33416 3.8604 6.52833 2.66699 8.00098 2.66699ZM8.00098 4C7.26471 4 6.66814 4.59678 6.66797 5.33301C6.66797 6.06939 7.2646 6.66699 8.00098 6.66699C8.73736 6.66699 9.33398 6.06939 9.33398 5.33301C9.33381 4.59678 8.73725 4 8.00098 4ZM4.00098 0.666992C4.36906 0.666992 4.66779 0.964968 4.66797 1.33301C4.66797 1.7012 4.36917 2 4.00098 2H2.00098V4C2.00098 4.36819 1.70217 4.66699 1.33398 4.66699C0.965944 4.66682 0.667969 4.36808 0.667969 4V1.33301C0.668145 0.965076 0.966053 0.667168 1.33398 0.666992H4.00098ZM14.668 0.666992C15.0359 0.667168 15.3338 0.965076 15.334 1.33301V4C15.334 4.36808 15.036 4.66682 14.668 4.66699C14.2998 4.66699 14.001 4.36819 14.001 4V2H12.001C11.6328 2 11.334 1.7012 11.334 1.33301C11.3342 0.964968 11.6329 0.666992 12.001 0.666992H14.668Z" fill="#6C658E"/>
</svg>
