<svg width="16" height="16" viewBox="0 0 16 16" fill="none" xmlns="http://www.w3.org/2000/svg">
<path d="M12.0065 10.9817C12.3274 10.8012 12.7335 10.9148 12.9141 11.2356C13.0945 11.5565 12.981 11.9626 12.6602 12.1432L8.32682 14.5807C8.12388 14.6948 7.87612 14.6948 7.67318 14.5807L3.33984 12.1432L3.2819 12.1074C3.00564 11.9128 2.91671 11.5365 3.08594 11.2356C3.25519 10.9349 3.62261 10.8161 3.93229 10.9511L3.99349 10.9817L8 13.235L12.0065 10.9817ZM2 9.99996V4.99996C2 4.75916 2.13 4.53733 2.33984 4.41923L6.50651 2.07548C6.82737 1.89499 7.23352 2.00858 7.41406 2.32939C7.59455 2.65025 7.48097 3.05639 7.16016 3.23694L3.33333 5.38928V9.99996C3.33333 10.3681 3.03486 10.6666 2.66667 10.6666C2.29848 10.6666 2 10.3681 2 9.99996ZM12.6667 9.99996V5.38928L8.83984 3.23694L8.7819 3.20113C8.50564 3.00656 8.41671 2.63023 8.58594 2.32939C8.76648 2.00858 9.17263 1.89499 9.49349 2.07548L13.6602 4.41923C13.87 4.53733 14 4.75916 14 4.99996V9.99996C14 10.3681 13.7015 10.6666 13.3333 10.6666C12.9651 10.6666 12.6667 10.3681 12.6667 9.99996Z" fill="#6C658E"/>
<path d="M9.33333 7.2161L8 6.43876L6.66667 7.2161V8.78316L8 9.56116L9.33333 8.78316V7.2161ZM10.6667 9.16663C10.6667 9.40374 10.5407 9.62332 10.3359 9.7428L8.33594 10.9095C8.12842 11.0305 7.87158 11.0305 7.66406 10.9095L5.66406 9.7428C5.45925 9.62332 5.33333 9.40374 5.33333 9.16663V6.83329C5.33333 6.59618 5.45925 6.37659 5.66406 6.25712L7.66406 5.09045L7.74414 5.05074C7.93508 4.97139 8.15439 4.98461 8.33594 5.09045L10.3359 6.25712C10.5407 6.37659 10.6667 6.59618 10.6667 6.83329V9.16663Z" fill="#6C658E"/>
<path d="M7.33333 5.66663V3.33329C7.33333 2.9651 7.63181 2.66663 8 2.66663C8.36819 2.66663 8.66667 2.9651 8.66667 3.33329V5.66663C8.66667 6.03482 8.36819 6.33329 8 6.33329C7.63181 6.33329 7.33333 6.03482 7.33333 5.66663Z" fill="#6C658E"/>
<path d="M9.42122 8.66923C9.6039 8.34955 10.0111 8.23851 10.3307 8.42118L12.6641 9.75452L12.7214 9.79097C12.9965 9.98735 13.0834 10.3642 12.9121 10.664C12.7408 10.9638 12.372 11.0801 12.0632 10.9427L12.0026 10.9121L9.66927 9.57873C9.34959 9.39606 9.23855 8.98891 9.42122 8.66923Z" fill="#6C658E"/>
<path d="M5.66927 8.42118C5.98895 8.23851 6.3961 8.34955 6.57878 8.66923C6.76145 8.98891 6.65041 9.39606 6.33073 9.57873L3.9974 10.9121C3.67772 11.0947 3.27056 10.9837 3.08789 10.664C2.90522 10.3443 3.01626 9.93719 3.33594 9.75452L5.66927 8.42118Z" fill="#6C658E"/>
<path d="M8.33333 2.33329C8.33333 2.1492 8.18409 1.99996 8 1.99996C7.81591 1.99996 7.66667 2.1492 7.66667 2.33329C7.66667 2.51739 7.81591 2.66663 8 2.66663C8.18409 2.66663 8.33333 2.51739 8.33333 2.33329ZM9.66667 2.33329C9.66667 3.25377 8.92047 3.99996 8 3.99996C7.07953 3.99996 6.33333 3.25377 6.33333 2.33329C6.33333 1.41282 7.07953 0.666626 8 0.666626C8.92047 0.666626 9.66667 1.41282 9.66667 2.33329Z" fill="#6C658E"/>
<path d="M3 11C3 10.8159 2.85076 10.6666 2.66667 10.6666C2.48257 10.6666 2.33333 10.8159 2.33333 11C2.33333 11.1841 2.48257 11.3333 2.66667 11.3333C2.85076 11.3333 3 11.1841 3 11ZM4.33333 11C4.33333 11.9204 3.58714 12.6666 2.66667 12.6666C1.74619 12.6666 1 11.9204 1 11C1 10.0795 1.74619 9.33329 2.66667 9.33329C3.58714 9.33329 4.33333 10.0795 4.33333 11Z" fill="#6C658E"/>
<path d="M13.6667 11C13.6667 10.8159 13.5174 10.6666 13.3333 10.6666C13.1492 10.6666 13 10.8159 13 11C13 11.1841 13.1492 11.3333 13.3333 11.3333C13.5174 11.3333 13.6667 11.1841 13.6667 11ZM15 11C15 11.9204 14.2538 12.6666 13.3333 12.6666C12.4129 12.6666 11.6667 11.9204 11.6667 11C11.6667 10.0795 12.4129 9.33329 13.3333 9.33329C14.2538 9.33329 15 10.0795 15 11Z" fill="#6C658E"/>
</svg>
