<svg width="16" height="16" viewBox="0 0 16 16" fill="none" xmlns="http://www.w3.org/2000/svg">
<mask id="path-1-inside-1_494_6484" fill="white">
<path d="M1.33398 11.333C1.70217 11.333 2.00098 11.6318 2.00098 12V14H4.00098C4.36917 14 4.66797 14.2988 4.66797 14.667C4.66779 15.035 4.36906 15.333 4.00098 15.333H1.33398C0.966053 15.3328 0.668145 15.0349 0.667969 14.667V12C0.667969 11.6319 0.965944 11.3332 1.33398 11.333ZM14.668 11.333C15.036 11.3332 15.334 11.6319 15.334 12V14.667C15.3338 15.0349 15.0359 15.3328 14.668 15.333H12.001C11.6329 15.333 11.3342 15.035 11.334 14.667C11.334 14.2988 11.6328 14 12.001 14H14.001V12C14.001 11.6318 14.2998 11.333 14.668 11.333ZM8.00098 2.66699C9.47363 2.66699 10.6678 3.8604 10.668 5.33301C10.668 6.26804 10.1853 7.08937 9.45703 7.56543C11.3213 8.17717 12.668 9.93117 12.668 12C12.668 12.3682 12.3692 12.667 12.001 12.667C11.6328 12.667 11.334 12.3682 11.334 12C11.334 10.1591 9.84192 8.66699 8.00098 8.66699C6.16003 8.66699 4.66797 10.1591 4.66797 12C4.66797 12.3682 4.36917 12.667 4.00098 12.667C3.63279 12.667 3.33398 12.3682 3.33398 12C3.33398 9.93149 4.68017 8.17743 6.54395 7.56543C5.81602 7.0893 5.33398 6.26775 5.33398 5.33301C5.33416 3.8604 6.52833 2.66699 8.00098 2.66699ZM8.00098 4C7.26471 4 6.66814 4.59678 6.66797 5.33301C6.66797 6.06939 7.2646 6.66699 8.00098 6.66699C8.73736 6.66699 9.33398 6.06939 9.33398 5.33301C9.33381 4.59678 8.73725 4 8.00098 4ZM4.00098 0.666992C4.36906 0.666992 4.66779 0.964968 4.66797 1.33301C4.66797 1.7012 4.36917 2 4.00098 2H2.00098V4C2.00098 4.36819 1.70217 4.66699 1.33398 4.66699C0.965944 4.66682 0.667969 4.36808 0.667969 4V1.33301C0.668145 0.965076 0.966053 0.667168 1.33398 0.666992H4.00098ZM14.668 0.666992C15.0359 0.667168 15.3338 0.965076 15.334 1.33301V4C15.334 4.36808 15.036 4.66682 14.668 4.66699C14.2998 4.66699 14.001 4.36819 14.001 4V2H12.001C11.6328 2 11.334 1.7012 11.334 1.33301C11.3342 0.964968 11.6329 0.666992 12.001 0.666992H14.668Z"/>
</mask>
<path d="M1.33398 11.333C1.70217 11.333 2.00098 11.6318 2.00098 12V14H4.00098C4.36917 14 4.66797 14.2988 4.66797 14.667C4.66779 15.035 4.36906 15.333 4.00098 15.333H1.33398C0.966053 15.3328 0.668145 15.0349 0.667969 14.667V12C0.667969 11.6319 0.965944 11.3332 1.33398 11.333ZM14.668 11.333C15.036 11.3332 15.334 11.6319 15.334 12V14.667C15.3338 15.0349 15.0359 15.3328 14.668 15.333H12.001C11.6329 15.333 11.3342 15.035 11.334 14.667C11.334 14.2988 11.6328 14 12.001 14H14.001V12C14.001 11.6318 14.2998 11.333 14.668 11.333ZM8.00098 2.66699C9.47363 2.66699 10.6678 3.8604 10.668 5.33301C10.668 6.26804 10.1853 7.08937 9.45703 7.56543C11.3213 8.17717 12.668 9.93117 12.668 12C12.668 12.3682 12.3692 12.667 12.001 12.667C11.6328 12.667 11.334 12.3682 11.334 12C11.334 10.1591 9.84192 8.66699 8.00098 8.66699C6.16003 8.66699 4.66797 10.1591 4.66797 12C4.66797 12.3682 4.36917 12.667 4.00098 12.667C3.63279 12.667 3.33398 12.3682 3.33398 12C3.33398 9.93149 4.68017 8.17743 6.54395 7.56543C5.81602 7.0893 5.33398 6.26775 5.33398 5.33301C5.33416 3.8604 6.52833 2.66699 8.00098 2.66699ZM8.00098 4C7.26471 4 6.66814 4.59678 6.66797 5.33301C6.66797 6.06939 7.2646 6.66699 8.00098 6.66699C8.73736 6.66699 9.33398 6.06939 9.33398 5.33301C9.33381 4.59678 8.73725 4 8.00098 4ZM4.00098 0.666992C4.36906 0.666992 4.66779 0.964968 4.66797 1.33301C4.66797 1.7012 4.36917 2 4.00098 2H2.00098V4C2.00098 4.36819 1.70217 4.66699 1.33398 4.66699C0.965944 4.66682 0.667969 4.36808 0.667969 4V1.33301C0.668145 0.965076 0.966053 0.667168 1.33398 0.666992H4.00098ZM14.668 0.666992C15.0359 0.667168 15.3338 0.965076 15.334 1.33301V4C15.334 4.36808 15.036 4.66682 14.668 4.66699C14.2998 4.66699 14.001 4.36819 14.001 4V2H12.001C11.6328 2 11.334 1.7012 11.334 1.33301C11.3342 0.964968 11.6329 0.666992 12.001 0.666992H14.668Z" fill="#575179"/>
<path d="M1.33398 11.333V10.333H1.33351L1.33398 11.333ZM2.00098 14H1.00098V15H2.00098V14ZM4.00098 14L4.00098 13H4.00098V14ZM4.66797 14.667L5.66797 14.6675V14.667H4.66797ZM4.00098 15.333V16.333H4.00098L4.00098 15.333ZM1.33398 15.333L1.33351 16.333H1.33398V15.333ZM0.667969 14.667H-0.332031L-0.332031 14.6675L0.667969 14.667ZM14.668 11.333L14.6684 10.333H14.668V11.333ZM15.334 14.667L16.334 14.6675V14.667H15.334ZM14.668 15.333V16.333H14.6684L14.668 15.333ZM11.334 14.667H10.334V14.6675L11.334 14.667ZM14.001 14V15H15.001V14H14.001ZM8.00098 2.66699V1.66699V2.66699ZM10.668 5.33301H11.668V5.33289L10.668 5.33301ZM9.45703 7.56543L8.90989 6.72839L7.16823 7.86684L9.14524 8.51558L9.45703 7.56543ZM12.668 12H13.668H12.668ZM12.001 12.667V13.667V12.667ZM11.334 12H12.334H11.334ZM8.00098 8.66699V7.66699V8.66699ZM4.66797 12H3.66797H4.66797ZM4.00098 12.667V13.667V12.667ZM3.33398 12H2.33398H3.33398ZM6.54395 7.56543L6.85592 8.51552L8.83152 7.8668L7.09134 6.72856L6.54395 7.56543ZM5.33398 5.33301L4.33398 5.33289V5.33301H5.33398ZM8.00098 4V3V4ZM6.66797 5.33301L5.66797 5.33277V5.33301H6.66797ZM8.00098 6.66699V7.66699V6.66699ZM9.33398 5.33301H10.334V5.33277L9.33398 5.33301ZM4.00098 0.666992L4.00098 -0.333008H4.00098V0.666992ZM4.66797 1.33301H5.66797V1.33253L4.66797 1.33301ZM4.00098 2V3H4.00098L4.00098 2ZM2.00098 2V1H1.00098V2H2.00098ZM2.00098 4L3.00098 4V4H2.00098ZM1.33398 4.66699L1.33351 5.66699H1.33398V4.66699ZM0.667969 4H-0.332031V4L0.667969 4ZM0.667969 1.33301L-0.332031 1.33253V1.33301H0.667969ZM1.33398 0.666992V-0.333008L1.33351 -0.333008L1.33398 0.666992ZM14.668 0.666992L14.6684 -0.333008H14.668V0.666992ZM15.334 1.33301H16.334V1.33253L15.334 1.33301ZM15.334 4L16.334 4V4H15.334ZM14.668 4.66699V5.66699H14.6684L14.668 4.66699ZM14.001 4H13.001V4L14.001 4ZM14.001 2H15.001V1H14.001V2ZM11.334 1.33301L10.334 1.33253V1.33301H11.334ZM1.33398 11.333V12.333C1.14989 12.333 1.00098 12.1841 1.00098 12H2.00098H3.00098C3.00098 11.0795 2.25446 10.333 1.33398 10.333V11.333ZM2.00098 12H1.00098V14H2.00098H3.00098V12H2.00098ZM2.00098 14V15H4.00098V14V13H2.00098V14ZM4.00098 14L4.00098 15C3.81688 15 3.66797 14.8511 3.66797 14.667H4.66797H5.66797C5.66797 13.7465 4.92145 13 4.00098 13L4.00098 14ZM4.66797 14.667L3.66797 14.6665C3.66806 14.4812 3.81821 14.333 4.00098 14.333L4.00098 15.333L4.00098 16.333C4.91991 16.333 5.66753 15.5889 5.66797 14.6675L4.66797 14.667ZM4.00098 15.333V14.333H1.33398V15.333V16.333H4.00098V15.333ZM1.33398 15.333L1.33446 14.333C1.51844 14.3331 1.66788 14.4825 1.66797 14.6665L0.667969 14.667L-0.332031 14.6675C-0.331591 15.5873 0.413663 16.3326 1.33351 16.333L1.33398 15.333ZM0.667969 14.667H1.66797V12H0.667969H-0.332031V14.667H0.667969ZM0.667969 12H1.66797C1.66797 12.1828 1.51977 12.3329 1.33446 12.333L1.33398 11.333L1.33351 10.333C0.412123 10.3334 -0.332031 11.0811 -0.332031 12H0.667969ZM14.668 11.333L14.6675 12.333C14.4822 12.3329 14.334 12.1828 14.334 12H15.334H16.334C16.334 11.0811 15.5898 10.3334 14.6684 10.333L14.668 11.333ZM15.334 12H14.334V14.667H15.334H16.334V12H15.334ZM15.334 14.667L14.334 14.6665C14.3341 14.4825 14.4835 14.3331 14.6675 14.333L14.668 15.333L14.6684 16.333C15.5883 16.3326 16.3335 15.5873 16.334 14.6675L15.334 14.667ZM14.668 15.333V14.333H12.001V15.333V16.333H14.668V15.333ZM12.001 15.333V14.333C12.1837 14.333 12.3339 14.4812 12.334 14.6665L11.334 14.667L10.334 14.6675C10.3344 15.5889 11.082 16.333 12.001 16.333V15.333ZM11.334 14.667H12.334C12.334 14.8511 12.1851 15 12.001 15V14V13C11.0805 13 10.334 13.7465 10.334 14.667H11.334ZM12.001 14V15H14.001V14V13H12.001V14ZM14.001 14H15.001V12H14.001H13.001V14H14.001ZM14.001 12H15.001C15.001 12.1841 14.8521 12.333 14.668 12.333V11.333V10.333C13.7475 10.333 13.001 11.0795 13.001 12H14.001ZM8.00098 2.66699V3.66699C8.9217 3.66699 9.66786 4.41307 9.66797 5.33313L10.668 5.33301L11.668 5.33289C11.6677 3.30773 10.0256 1.66699 8.00098 1.66699V2.66699ZM10.668 5.33301H9.66797C9.66797 5.91481 9.36901 6.42828 8.90989 6.72839L9.45703 7.56543L10.0042 8.40247C11.0017 7.75045 11.668 6.62127 11.668 5.33301H10.668ZM9.45703 7.56543L9.14524 8.51558C10.6113 8.99667 11.668 10.3763 11.668 12H12.668H13.668C13.668 9.48605 12.0312 7.35767 9.76882 6.61528L9.45703 7.56543ZM12.668 12H11.668C11.668 11.8159 11.8169 11.667 12.001 11.667V12.667V13.667C12.9215 13.667 13.668 12.9205 13.668 12H12.668ZM12.001 12.667V11.667C12.1851 11.667 12.334 11.8159 12.334 12H11.334H10.334C10.334 12.9205 11.0805 13.667 12.001 13.667V12.667ZM11.334 12H12.334C12.334 9.60677 10.3942 7.66699 8.00098 7.66699V8.66699V9.66699C9.28963 9.66699 10.334 10.7113 10.334 12H11.334ZM8.00098 8.66699V7.66699C5.60775 7.66699 3.66797 9.60677 3.66797 12H4.66797H5.66797C5.66797 10.7113 6.71232 9.66699 8.00098 9.66699V8.66699ZM4.66797 12H3.66797C3.66797 11.8159 3.81688 11.667 4.00098 11.667V12.667V13.667C4.92145 13.667 5.66797 12.9205 5.66797 12H4.66797ZM4.00098 12.667V11.667C4.18507 11.667 4.33398 11.8159 4.33398 12H3.33398H2.33398C2.33398 12.9205 3.0805 13.667 4.00098 13.667V12.667ZM3.33398 12H4.33398C4.33398 10.3764 5.3903 8.99678 6.85592 8.51552L6.54395 7.56543L6.23197 6.61534C3.97003 7.35809 2.33398 9.48655 2.33398 12H3.33398ZM6.54395 7.56543L7.09134 6.72856C6.63282 6.42864 6.33398 5.91504 6.33398 5.33301H5.33398H4.33398C4.33398 6.62046 4.99923 7.74996 5.99655 8.4023L6.54395 7.56543ZM5.33398 5.33301L6.33398 5.33313C6.33409 4.41307 7.08025 3.66699 8.00098 3.66699V2.66699V1.66699C5.9764 1.66699 4.33423 3.30773 4.33398 5.33289L5.33398 5.33301ZM8.00098 4V3C6.71218 3 5.66828 4.04468 5.66797 5.33277L6.66797 5.33301L7.66797 5.33325C7.66801 5.14888 7.81723 5 8.00098 5V4ZM6.66797 5.33301H5.66797C5.66797 6.62072 6.71136 7.66699 8.00098 7.66699V6.66699V5.66699C7.81784 5.66699 7.66797 5.51806 7.66797 5.33301H6.66797ZM8.00098 6.66699V7.66699C9.2906 7.66699 10.334 6.62072 10.334 5.33301H9.33398H8.33398C8.33398 5.51806 8.18412 5.66699 8.00098 5.66699V6.66699ZM9.33398 5.33301L10.334 5.33277C10.3337 4.04468 9.28977 3 8.00098 3V4V5C8.18473 5 8.33394 5.14888 8.33398 5.33325L9.33398 5.33301ZM4.00098 0.666992L4.00098 1.66699C3.81821 1.66699 3.66806 1.51879 3.66797 1.33349L4.66797 1.33301L5.66797 1.33253C5.66753 0.411146 4.91991 -0.333008 4.00098 -0.333008L4.00098 0.666992ZM4.66797 1.33301H3.66797C3.66797 1.14891 3.81688 1 4.00098 1L4.00098 2L4.00098 3C4.92145 3 5.66797 2.25348 5.66797 1.33301H4.66797ZM4.00098 2V1H2.00098V2V3H4.00098V2ZM2.00098 2H1.00098V4H2.00098H3.00098V2H2.00098ZM2.00098 4L1.00098 4C1.00098 3.81591 1.14989 3.66699 1.33398 3.66699V4.66699V5.66699C2.25446 5.66699 3.00098 4.92047 3.00098 4L2.00098 4ZM1.33398 4.66699L1.33446 3.66699C1.51977 3.66708 1.66797 3.81723 1.66797 4L0.667969 4L-0.332031 4C-0.332031 4.91893 0.412122 5.66655 1.33351 5.66699L1.33398 4.66699ZM0.667969 4H1.66797V1.33301H0.667969H-0.332031V4H0.667969ZM0.667969 1.33301L1.66797 1.33349C1.66788 1.51747 1.51844 1.6669 1.33446 1.66699L1.33398 0.666992L1.33351 -0.333008C0.413663 -0.332568 -0.331591 0.412687 -0.332031 1.33253L0.667969 1.33301ZM1.33398 0.666992V1.66699H4.00098V0.666992V-0.333008H1.33398V0.666992ZM14.668 0.666992L14.6675 1.66699C14.4835 1.6669 14.3341 1.51747 14.334 1.33349L15.334 1.33301L16.334 1.33253C16.3335 0.412687 15.5883 -0.332568 14.6684 -0.333008L14.668 0.666992ZM15.334 1.33301H14.334V4H15.334H16.334V1.33301H15.334ZM15.334 4L14.334 4C14.334 3.81723 14.4822 3.66708 14.6675 3.66699L14.668 4.66699L14.6684 5.66699C15.5898 5.66655 16.334 4.91893 16.334 4L15.334 4ZM14.668 4.66699V3.66699C14.8521 3.66699 15.001 3.81591 15.001 4L14.001 4L13.001 4C13.001 4.92047 13.7475 5.66699 14.668 5.66699V4.66699ZM14.001 4H15.001V2H14.001H13.001V4H14.001ZM14.001 2V1H12.001V2V3H14.001V2ZM12.001 2V1C12.1851 1 12.334 1.14891 12.334 1.33301H11.334H10.334C10.334 2.25348 11.0805 3 12.001 3V2ZM11.334 1.33301L12.334 1.33349C12.3339 1.51879 12.1837 1.66699 12.001 1.66699V0.666992V-0.333008C11.082 -0.333008 10.3344 0.411146 10.334 1.33253L11.334 1.33301ZM12.001 0.666992V1.66699H14.668V0.666992V-0.333008H12.001V0.666992Z" fill="#575179" mask="url(#path-1-inside-1_494_6484)"/>
</svg>
