<svg width="16" height="16" viewBox="0 0 16 16" fill="none" xmlns="http://www.w3.org/2000/svg">
<mask id="path-1-inside-1_763_69170" fill="white">
<path d="M7.90918 0.673462C8.00273 0.660182 8.09903 0.666295 8.19043 0.692993L14.1865 2.44495C14.4708 2.528 14.667 2.78938 14.667 3.08557V6.67737C14.667 10.7404 12.0665 14.3479 8.21191 15.6324C8.07522 15.678 7.92674 15.6779 7.79004 15.6324C3.93454 14.348 1.33309 10.7403 1.33301 6.67639V3.08557C1.33301 2.78935 1.52913 2.52797 1.81348 2.44495L7.81641 0.692993L7.90918 0.673462ZM2.66699 3.58459V6.67639C2.66708 10.0916 4.80658 13.1303 8.00098 14.2926C11.1946 13.1303 13.333 10.0917 13.333 6.67737V3.58459L8.00195 2.02698L2.66699 3.58459ZM10.8623 5.52893C11.1227 5.26858 11.5443 5.26858 11.8047 5.52893C12.0648 5.7893 12.065 6.21103 11.8047 6.47131L7.80469 10.4713C7.54441 10.7316 7.12267 10.7315 6.8623 10.4713L4.52832 8.13831C4.26797 7.87796 4.26797 7.4553 4.52832 7.19495C4.78867 6.9346 5.21133 6.9346 5.47168 7.19495L7.33301 9.05725L10.8623 5.52893Z"/>
</mask>
<path d="M7.90918 0.673462C8.00273 0.660182 8.09903 0.666295 8.19043 0.692993L14.1865 2.44495C14.4708 2.528 14.667 2.78938 14.667 3.08557V6.67737C14.667 10.7404 12.0665 14.3479 8.21191 15.6324C8.07522 15.678 7.92674 15.6779 7.79004 15.6324C3.93454 14.348 1.33309 10.7403 1.33301 6.67639V3.08557C1.33301 2.78935 1.52913 2.52797 1.81348 2.44495L7.81641 0.692993L7.90918 0.673462ZM2.66699 3.58459V6.67639C2.66708 10.0916 4.80658 13.1303 8.00098 14.2926C11.1946 13.1303 13.333 10.0917 13.333 6.67737V3.58459L8.00195 2.02698L2.66699 3.58459ZM10.8623 5.52893C11.1227 5.26858 11.5443 5.26858 11.8047 5.52893C12.0648 5.7893 12.065 6.21103 11.8047 6.47131L7.80469 10.4713C7.54441 10.7316 7.12267 10.7315 6.8623 10.4713L4.52832 8.13831C4.26797 7.87796 4.26797 7.4553 4.52832 7.19495C4.78867 6.9346 5.21133 6.9346 5.47168 7.19495L7.33301 9.05725L10.8623 5.52893Z" fill="#575179"/>
<path d="M7.90918 0.673462L7.76864 -0.316613L7.73571 -0.311939L7.70317 -0.305088L7.90918 0.673462ZM8.19043 0.692993L8.47089 -0.266874L8.47083 -0.26689L8.19043 0.692993ZM14.1865 2.44495L13.9061 3.40481L13.9061 3.40483L14.1865 2.44495ZM8.21191 15.6324L8.52793 16.5812L8.52807 16.5812L8.21191 15.6324ZM7.79004 15.6324L7.47396 16.5812L7.47432 16.5813L7.79004 15.6324ZM1.33301 6.67639L0.333008 6.67639L0.333008 6.67641L1.33301 6.67639ZM1.81348 2.44495L1.53331 1.48499L1.53319 1.48503L1.81348 2.44495ZM7.81641 0.692993L7.6104 -0.285557L7.57296 -0.277676L7.53624 -0.26696L7.81641 0.692993ZM2.66699 3.58459L2.38673 2.62467L1.66699 2.83481V3.58459H2.66699ZM2.66699 6.67639L1.66699 6.67639L1.66699 6.67642L2.66699 6.67639ZM8.00098 14.2926L7.65905 15.2323L8.00102 15.3568L8.34298 15.2323L8.00098 14.2926ZM13.333 3.58459H14.333V2.83496L13.6135 2.62473L13.333 3.58459ZM8.00195 2.02698L8.28241 1.06711L8.00206 0.985198L7.72169 1.06705L8.00195 2.02698ZM10.8623 5.52893L11.5693 6.23614L11.5694 6.23604L10.8623 5.52893ZM11.8047 5.52893L12.5121 4.82213L12.5118 4.82182L11.8047 5.52893ZM11.8047 6.47131L12.5118 7.17842L12.5118 7.17842L11.8047 6.47131ZM7.80469 10.4713L8.51179 11.1784L8.51179 11.1784L7.80469 10.4713ZM6.8623 10.4713L6.15535 11.1786L6.15551 11.1787L6.8623 10.4713ZM4.52832 8.13831L3.82121 8.84541L3.82136 8.84556L4.52832 8.13831ZM4.52832 7.19495L3.82122 6.48784L3.82121 6.48784L4.52832 7.19495ZM5.47168 7.19495L6.17897 6.48802L6.17879 6.48784L5.47168 7.19495ZM7.33301 9.05725L6.62572 9.76417L7.33272 10.4716L8.04002 9.76446L7.33301 9.05725ZM7.90918 0.673462L8.04972 1.66354C8.00756 1.66952 7.96011 1.66751 7.91003 1.65288L8.19043 0.692993L8.47083 -0.26689C8.23796 -0.334917 7.9979 -0.349158 7.76864 -0.316613L7.90918 0.673462ZM8.19043 0.692993L7.90997 1.65286L13.9061 3.40481L14.1865 2.44495L14.467 1.48508L8.47089 -0.266874L8.19043 0.692993ZM14.1865 2.44495L13.9061 3.40483C13.7644 3.36344 13.667 3.23416 13.667 3.08557H14.667H15.667C15.667 2.34459 15.1772 1.69256 14.4669 1.48506L14.1865 2.44495ZM14.667 3.08557H13.667V6.67737H14.667H15.667V3.08557H14.667ZM14.667 6.67737H13.667C13.667 10.3099 11.342 13.5353 7.89576 14.6837L8.21191 15.6324L8.52807 16.5812C12.791 15.1605 15.667 11.1709 15.667 6.67737H14.667ZM8.21191 15.6324L7.8959 14.6837C7.96456 14.6608 8.03771 14.661 8.10575 14.6836L7.79004 15.6324L7.47432 16.5813C7.81577 16.6949 8.18589 16.6951 8.52793 16.5812L8.21191 15.6324ZM7.79004 15.6324L8.10611 14.6837C4.65892 13.5353 2.33308 10.3097 2.33301 6.67637L1.33301 6.67639L0.333008 6.67641C0.333102 11.1709 3.21016 15.1607 7.47396 16.5812L7.79004 15.6324ZM1.33301 6.67639H2.33301V3.08557H1.33301H0.333008V6.67639H1.33301ZM1.33301 3.08557H2.33301C2.33301 3.23404 2.23559 3.36345 2.09377 3.40486L1.81348 2.44495L1.53319 1.48503C0.822672 1.6925 0.333008 2.34465 0.333008 3.08557H1.33301ZM1.81348 2.44495L2.09364 3.4049L8.09657 1.65295L7.81641 0.692993L7.53624 -0.26696L1.53331 1.48499L1.81348 2.44495ZM7.81641 0.692993L8.02242 1.67154L8.11519 1.65201L7.90918 0.673462L7.70317 -0.305088L7.6104 -0.285557L7.81641 0.692993ZM2.66699 3.58459H1.66699V6.67639H2.66699H3.66699V3.58459H2.66699ZM2.66699 6.67639L1.66699 6.67642C1.66709 10.5132 4.0707 13.9267 7.65905 15.2323L8.00098 14.2926L8.3429 13.3529C5.54245 12.3339 3.66707 9.66991 3.66699 6.67637L2.66699 6.67639ZM8.00098 14.2926L8.34298 15.2323C11.9306 13.9266 14.333 10.5132 14.333 6.67737H13.333H12.333C12.333 9.67027 10.4585 12.334 7.65897 13.3529L8.00098 14.2926ZM13.333 6.67737H14.333V3.58459H13.333H12.333V6.67737H13.333ZM13.333 3.58459L13.6135 2.62473L8.28241 1.06711L8.00195 2.02698L7.7215 2.98685L13.0526 4.54446L13.333 3.58459ZM8.00195 2.02698L7.72169 1.06705L2.38673 2.62467L2.66699 3.58459L2.94726 4.54452L8.28222 2.9869L8.00195 2.02698ZM10.8623 5.52893L11.5694 6.23604C11.4392 6.36621 11.2278 6.36622 11.0976 6.23604L11.8047 5.52893L12.5118 4.82182C11.8609 4.17095 10.8061 4.17096 10.1552 4.82182L10.8623 5.52893ZM11.8047 5.52893L11.0973 6.23573C10.9676 6.10594 10.967 5.89476 11.0976 5.76421L11.8047 6.47131L12.5118 7.17842C13.1629 6.52731 13.1621 5.47265 12.5121 4.82213L11.8047 5.52893ZM11.8047 6.47131L11.0976 5.76421L7.09758 9.76421L7.80469 10.4713L8.51179 11.1784L12.5118 7.17842L11.8047 6.47131ZM7.80469 10.4713L7.09758 9.76421C7.22813 9.63365 7.43932 9.63423 7.5691 9.7639L6.8623 10.4713L6.15551 11.1787C6.80602 11.8287 7.86068 11.8295 8.51179 11.1784L7.80469 10.4713ZM6.8623 10.4713L7.56926 9.76406L5.23528 7.43105L4.52832 8.13831L3.82136 8.84556L6.15535 11.1786L6.8623 10.4713ZM4.52832 8.13831L5.23543 7.4312C5.3656 7.56137 5.3656 7.77188 5.23543 7.90205L4.52832 7.19495L3.82121 6.48784C3.17034 7.13871 3.17034 8.19454 3.82121 8.84541L4.52832 8.13831ZM4.52832 7.19495L5.23542 7.90206C5.10525 8.03223 4.89475 8.03223 4.76457 7.90205L5.47168 7.19495L6.17879 6.48784C5.52791 5.83696 4.47209 5.83697 3.82122 6.48784L4.52832 7.19495ZM5.47168 7.19495L4.76439 7.90187L6.62572 9.76417L7.33301 9.05725L8.0403 8.35033L6.17897 6.48802L5.47168 7.19495ZM7.33301 9.05725L8.04002 9.76446L11.5693 6.23614L10.8623 5.52893L10.1553 4.82173L6.626 8.35005L7.33301 9.05725Z" fill="#575179" mask="url(#path-1-inside-1_763_69170)"/>
</svg>
