<svg width="16" height="16" viewBox="0 0 16 16" fill="none" xmlns="http://www.w3.org/2000/svg">
<g clip-path="url(#clip0_763_63731)">
<path d="M15.2438 1.51684L14.4867 0.759699C14.4581 0.731128 14.4224 0.718628 14.3849 0.718628C14.3474 0.718628 14.3117 0.732914 14.2831 0.759699L12.9242 2.11863C12.3334 1.71837 11.636 1.50496 10.9224 1.50613C10.0081 1.50613 9.09385 1.85434 8.39563 2.55256L6.57599 4.3722C6.5494 4.39905 6.53449 4.43531 6.53449 4.47309C6.53449 4.51088 6.5494 4.54714 6.57599 4.57399L11.4278 9.42577C11.4563 9.45434 11.4921 9.46684 11.5296 9.46684C11.5653 9.46684 11.6028 9.45256 11.6313 9.42577L13.451 7.60613C14.6813 6.37399 14.826 4.46863 13.8849 3.07934L15.2438 1.72041C15.2992 1.66327 15.2992 1.5722 15.2438 1.51684V1.51684ZM12.5903 6.7472L11.5296 7.80791L8.19385 4.4722L9.25456 3.41149C9.6992 2.96684 10.2921 2.72041 10.9224 2.72041C11.5528 2.72041 12.1438 2.96506 12.5903 3.41149C13.0349 3.85613 13.2813 4.44899 13.2813 5.07934C13.2813 5.7097 13.0349 6.30077 12.5903 6.7472V6.7472ZM9.19385 8.6222C9.167 8.59561 9.13074 8.5807 9.09295 8.5807C9.05517 8.5807 9.01891 8.59561 8.99206 8.6222L7.80277 9.81149L6.19027 8.19899L7.38134 7.00791C7.4367 6.95256 7.4367 6.86149 7.38134 6.80613L6.73134 6.15613C6.7045 6.12954 6.66824 6.11463 6.63045 6.11463C6.59267 6.11463 6.55641 6.12954 6.52956 6.15613L5.33849 7.3472L4.57063 6.57934C4.5573 6.566 4.54141 6.55549 4.52392 6.54843C4.50643 6.54137 4.4877 6.53792 4.46884 6.53827C4.43313 6.53827 4.39563 6.55256 4.36706 6.57934L2.5492 8.39899C1.31884 9.63113 1.1742 11.5365 2.11527 12.9258L0.756344 14.2847C0.729758 14.3116 0.714844 14.3478 0.714844 14.3856C0.714844 14.4234 0.729758 14.4596 0.756344 14.4865L1.51349 15.2436C1.54206 15.2722 1.57777 15.2847 1.61527 15.2847C1.65277 15.2847 1.68849 15.2704 1.71706 15.2436L3.07599 13.8847C3.67777 14.2936 4.37777 14.4972 5.07777 14.4972C5.99206 14.4972 6.90634 14.149 7.60456 13.4508L9.4242 11.6311C9.47956 11.5758 9.47956 11.4847 9.4242 11.4293L8.65634 10.6615L9.84742 9.47042C9.90277 9.41506 9.90277 9.32399 9.84742 9.26863L9.19385 8.6222V8.6222ZM6.74385 12.5936C6.52529 12.8133 6.26536 12.9875 5.97909 13.1061C5.69281 13.2247 5.38586 13.2854 5.07599 13.2847C4.44563 13.2847 3.85456 13.0401 3.40813 12.5936C3.18845 12.3751 3.01427 12.1151 2.89566 11.8289C2.77704 11.5426 2.71634 11.2356 2.71706 10.9258C2.71706 10.2954 2.9617 9.70434 3.40813 9.25791L4.46884 8.1972L7.80456 11.5329L6.74385 12.5936V12.5936Z" fill="#6C658E"/>
</g>
<defs>
<clipPath id="clip0_763_63731">
<rect width="16" height="16" fill="white"/>
</clipPath>
</defs>
</svg>
