<svg width="16" height="16" viewBox="0 0 16 16" fill="none" xmlns="http://www.w3.org/2000/svg">
<path d="M12.999 1.33301C13.9195 1.33301 14.666 2.07953 14.666 3V13C14.666 13.9205 13.9195 14.667 12.999 14.667H2.99902C2.07856 14.667 1.33203 13.9205 1.33203 13V3C1.33203 2.07953 2.07855 1.33301 2.99902 1.33301H12.999ZM2.99902 2.66699C2.81493 2.66699 2.66602 2.81591 2.66602 3V13C2.66602 13.1841 2.81492 13.333 2.99902 13.333H12.999C13.1831 13.333 13.332 13.1841 13.332 13V3C13.332 2.8159 13.1831 2.66699 12.999 2.66699H2.99902ZM7.57812 6.14941C7.83997 5.93585 8.22663 5.95124 8.4707 6.19531L11.1367 8.8623C11.397 9.12266 11.3971 9.54435 11.1367 9.80469C10.8764 10.0649 10.4546 10.065 10.1943 9.80469L8.66602 8.27637V12C8.66602 12.3682 8.36721 12.667 7.99902 12.667C7.63083 12.667 7.33203 12.3682 7.33203 12V8.27637L5.80371 9.80469C5.54342 10.065 5.12169 10.0648 4.86133 9.80469C4.60098 9.54434 4.60098 9.12265 4.86133 8.8623L7.52734 6.19531L7.57812 6.14941ZM10.666 4C11.0341 4.00018 11.332 4.29891 11.332 4.66699C11.3319 5.03492 11.0339 5.33283 10.666 5.33301H5.33203C4.9641 5.33283 4.66619 5.03492 4.66602 4.66699C4.66602 4.29891 4.96399 4.00018 5.33203 4H10.666Z" fill="#6C658E"/>
</svg>
