<svg width="16" height="16" viewBox="0 0 16 16" fill="none" xmlns="http://www.w3.org/2000/svg">
<path d="M14.134 9.83337C14.4285 9.83337 14.6673 10.0722 14.6673 10.3667V14.1334C14.6673 14.4279 14.4285 14.6667 14.134 14.6667H9.16732C8.87277 14.6667 8.63398 14.4279 8.63398 14.1334V10.3667C8.63398 10.0722 8.87277 9.83337 9.16732 9.83337H14.134ZM6.83398 7.40004C7.12853 7.40004 7.36732 7.63882 7.36732 7.93337V14.1334C7.36732 14.4279 7.12853 14.6667 6.83398 14.6667H1.86732C1.57277 14.6667 1.33398 14.4279 1.33398 14.1334V7.93337C1.33398 7.63882 1.57277 7.40004 1.86732 7.40004H6.83398ZM13.6007 10.9H9.70065V13.6H13.6007V10.9ZM6.30065 8.46671H2.40065V13.6H6.30065V8.46671ZM14.134 1.33337C14.4285 1.33337 14.6673 1.57216 14.6673 1.86671V8.06671C14.6673 8.36126 14.4285 8.60004 14.134 8.60004H9.16732C8.87277 8.60004 8.63398 8.36126 8.63398 8.06671V1.86671C8.63398 1.57216 8.87277 1.33337 9.16732 1.33337H14.134ZM13.6007 2.40004H9.70065V7.53337H13.6007V2.40004ZM6.83398 1.33337C7.12853 1.33337 7.36732 1.57216 7.36732 1.86671V5.63337C7.36732 5.92792 7.12853 6.16671 6.83398 6.16671H1.86732C1.57277 6.16671 1.33398 5.92792 1.33398 5.63337V1.86671C1.33398 1.57216 1.57277 1.33337 1.86732 1.33337H6.83398ZM6.30065 2.40004H2.40065V5.10004H6.30065V2.40004Z" fill="#575179"/>
<path d="M1.13281 14.1334V7.93355C1.13281 7.52859 1.46094 7.1999 1.86589 7.19983V7.3997C1.5714 7.39977 1.33268 7.63905 1.33268 7.93355V14.1334L1.33529 14.1881C1.36272 14.4569 1.5899 14.6666 1.86589 14.6666H6.83268C7.10873 14.6666 7.33584 14.4569 7.36328 14.1881L7.36589 14.1334V7.93355C7.36589 7.639 7.12723 7.3997 6.83268 7.3997V7.19983C7.23769 7.19983 7.56575 7.52855 7.56575 7.93355V14.1334C7.56568 14.5384 7.23765 14.8665 6.83268 14.8665H1.86589C1.46098 14.8664 1.13288 14.5383 1.13281 14.1334ZM8.43294 14.1334V10.3665C8.43301 9.96155 8.76105 9.63342 9.16602 9.63342V9.83329C8.87151 9.83329 8.63288 10.072 8.63281 10.3665V14.1334L8.63542 14.1881C8.66286 14.4569 8.88997 14.6666 9.16602 14.6666H14.1328L14.1875 14.664C14.4383 14.6384 14.6378 14.4389 14.6634 14.1881L14.666 14.1334V10.3665C14.6659 10.0905 14.4563 9.86333 14.1875 9.8359L14.1328 9.83329V9.63342C14.5377 9.63349 14.8658 9.96159 14.8659 10.3665V14.1334C14.8658 14.5383 14.5377 14.8664 14.1328 14.8665H9.16602C8.76105 14.8665 8.43301 14.5384 8.43294 14.1334ZM6.29948 8.46676V13.6002H2.39909V8.46676H6.29948ZM13.5996 10.8997V13.6002H9.69922V10.8997H13.5996ZM9.89909 13.3997H13.3991V11.1002H9.89909V13.3997ZM2.59961 13.3997H6.09961V8.66663H2.59961V13.3997ZM14.1328 9.63342V9.83329H9.16602V9.63342H14.1328ZM8.43294 8.06637V1.8665C8.43301 1.46155 8.76105 1.13342 9.16602 1.13342V1.33329C8.87151 1.33329 8.63288 1.57201 8.63281 1.8665V8.06637L8.63542 8.12105C8.66086 8.37205 8.86037 8.57139 9.11133 8.59696L9.16602 8.60022H14.1328L14.1875 8.59696C14.4563 8.56951 14.666 8.3424 14.666 8.06637V1.8665C14.6659 1.59051 14.4563 1.36333 14.1875 1.3359L14.1328 1.33329V1.13342C14.5377 1.13349 14.8658 1.46159 14.8659 1.8665V8.06637C14.8659 8.47133 14.5378 8.80002 14.1328 8.80009H9.16602C8.76101 8.80009 8.43294 8.47137 8.43294 8.06637ZM13.5996 2.3997V7.53316H9.69922V2.3997H13.5996ZM6.83268 7.19983V7.3997H1.86589V7.19983H6.83268ZM9.89909 7.33329H13.3991V2.60022H9.89909V7.33329ZM1.13281 5.63342V1.8665C1.13288 1.46159 1.46098 1.13349 1.86589 1.13342V1.33329C1.57144 1.33336 1.33275 1.57205 1.33268 1.8665V5.63342L1.33529 5.68811C1.36272 5.95687 1.5899 6.16656 1.86589 6.16663H6.83268C7.10873 6.16663 7.33584 5.95691 7.36328 5.68811L7.36589 5.63342V1.8665C7.36581 1.57201 7.12719 1.33329 6.83268 1.33329V1.13342C7.23765 1.13342 7.56568 1.46155 7.56575 1.8665V5.63342C7.56568 6.03837 7.23765 6.3665 6.83268 6.3665H1.86589C1.46098 6.36643 1.13288 6.03833 1.13281 5.63342ZM6.29948 2.3997V5.10022H2.39909V2.3997H6.29948ZM2.59961 4.8997H6.09961V2.60022H2.59961V4.8997ZM14.1328 1.13342V1.33329H9.16602V1.13342H14.1328ZM6.83268 1.13342V1.33329H1.86589V1.13342H6.83268Z" fill="#575179"/>
</svg>
