<svg width="20" height="20" viewBox="0 0 20 20" fill="none" xmlns="http://www.w3.org/2000/svg">
<path d="M16.251 1.66699C17.4016 1.66699 18.334 2.59941 18.334 3.75V16.25C18.334 17.4006 17.4016 18.333 16.251 18.333H3.75098C2.60038 18.333 1.66797 17.4006 1.66797 16.25V3.75C1.66797 2.59941 2.60038 1.66699 3.75098 1.66699H16.251ZM7.91797 16.667H16.251C16.4811 16.667 16.668 16.4801 16.668 16.25V7.91699H7.91797V16.667ZM3.33398 16.25C3.33398 16.4801 3.52086 16.667 3.75098 16.667H6.25098V7.91699H3.33398V16.25ZM3.75098 3.33301C3.52086 3.33301 3.33398 3.51988 3.33398 3.75V6.25H16.668V3.75C16.668 3.51988 16.4811 3.33301 16.251 3.33301H3.75098Z" fill="#6C658E"/>
</svg>
