<svg width="16" height="16" viewBox="0 0 16 16" fill="none" xmlns="http://www.w3.org/2000/svg">
<path d="M11 2.33329C11 2.14919 10.8508 1.99996 10.6667 1.99996H2.66667C2.48257 1.99996 2.33333 2.1492 2.33333 2.33329V13.6666C2.33333 13.8507 2.48257 14 2.66667 14H11V2.33329ZM12.3333 14.6666C12.3333 15.0348 12.0349 15.3333 11.6667 15.3333H2.66667C1.7462 15.3333 1 14.5871 1 13.6666V2.33329C1 1.41282 1.74619 0.666626 2.66667 0.666626H10.6667C11.5872 0.666626 12.3333 1.41283 12.3333 2.33329V14.6666Z" fill="#6C658E"/>
<path d="M12.3333 7.99996V14H13.3333C13.5174 14 13.6667 13.8507 13.6667 13.6666V7.99996H12.3333ZM15 13.6666C15 14.5871 14.2538 15.3333 13.3333 15.3333H11.6667C11.2985 15.3333 11 15.0348 11 14.6666V7.99996C11 7.26357 11.5969 6.66663 12.3333 6.66663H13.6667C14.4031 6.66663 15 7.26357 15 7.99996V13.6666Z" fill="#6C658E"/>
<path d="M6.33333 3.33329C6.70152 3.33329 7 3.63177 7 3.99996C7 4.36815 6.70152 4.66663 6.33333 4.66663H3.66667C3.29848 4.66663 3 4.36815 3 3.99996C3 3.63177 3.29848 3.33329 3.66667 3.33329H6.33333Z" fill="#6C658E"/>
<path d="M7.66667 5.66663C8.03486 5.66663 8.33333 5.9651 8.33333 6.33329C8.33333 6.70148 8.03486 6.99996 7.66667 6.99996H3.66667C3.29848 6.99996 3 6.70148 3 6.33329C3 5.9651 3.29848 5.66663 3.66667 5.66663H7.66667Z" fill="#6C658E"/>
</svg>
