<svg width="16" height="16" viewBox="0 0 16 16" fill="none" xmlns="http://www.w3.org/2000/svg">
<path d="M12.0007 1.33337C12.7079 1.33337 13.3862 1.62911 13.8863 2.15553C14.3864 2.68195 14.6673 3.39592 14.6673 4.14039V9.05267C14.6673 9.79714 14.3864 10.5111 13.8863 11.0375C13.3862 11.564 12.7079 11.8597 12.0007 11.8597H9.00065V13.2632H10.6673C10.8441 13.2632 11.0137 13.3372 11.1387 13.4688C11.2637 13.6004 11.3339 13.7789 11.3339 13.965C11.3339 14.1511 11.2637 14.3295 11.1387 14.4611C11.0137 14.5927 10.8441 14.6667 10.6673 14.6667H6.00065C5.82386 14.6667 5.65431 14.5927 5.52931 14.4611C5.40431 14.3295 5.33409 14.1511 5.33409 13.965C5.33409 13.7789 5.40431 13.6004 5.52931 13.4688C5.65431 13.3372 5.82386 13.2632 6.00065 13.2632H7.66732V11.8597H4.00065C3.31649 11.8597 2.6585 11.5829 2.16278 11.0866C1.66705 10.5902 1.37153 9.91229 1.33732 9.19302L1.33398 9.05267V4.14039C1.33398 3.39592 1.61494 2.68195 2.11503 2.15553C2.61513 1.62911 3.29341 1.33337 4.00065 1.33337H12.0007ZM12.0007 2.73688H4.00065C3.64703 2.73688 3.30789 2.88475 3.05784 3.14796C2.80779 3.41117 2.66732 3.76816 2.66732 4.14039V9.05267C2.66732 9.42491 2.80779 9.78189 3.05784 10.0451C3.30789 10.3083 3.64703 10.4562 4.00065 10.4562H12.0007C12.3543 10.4562 12.6934 10.3083 12.9435 10.0451C13.1935 9.78189 13.334 9.42491 13.334 9.05267V4.14039C13.334 3.76816 13.1935 3.41117 12.9435 3.14796C12.6934 2.88475 12.3543 2.73688 12.0007 2.73688ZM8.00065 4.14039C8.17744 4.14042 8.34699 4.21437 8.47199 4.34597C8.59699 4.47757 8.66722 4.65605 8.66722 4.84215C8.66722 5.02824 8.59699 5.20672 8.47199 5.33832C8.34699 5.46992 8.17744 5.54387 8.00065 5.5439H4.66732C4.57976 5.54391 4.49306 5.52577 4.41216 5.49051C4.33127 5.45525 4.25776 5.40356 4.19585 5.3384C4.13393 5.27323 4.08482 5.19587 4.05131 5.11072C4.0178 5.02557 4.00055 4.93431 4.00055 4.84215C4.00055 4.74998 4.0178 4.65872 4.05131 4.57357C4.08482 4.48842 4.13393 4.41106 4.19585 4.34589C4.25776 4.28073 4.33127 4.22904 4.41216 4.19378C4.49306 4.15852 4.57976 4.14038 4.66732 4.14039H8.00065Z" fill="#6C658E"/>
</svg>
