<svg width="20" height="20" viewBox="0 0 20 20" fill="none" xmlns="http://www.w3.org/2000/svg">
<path d="M16.251 1.66699C17.4016 1.66699 18.334 2.59942 18.334 3.75V16.25C18.334 17.4006 17.4016 18.333 16.251 18.333H3.75098C2.60039 18.333 1.66797 17.4006 1.66797 16.25V3.75C1.66797 2.59941 2.60039 1.66699 3.75098 1.66699H16.251ZM3.75098 3.33301C3.52086 3.33301 3.33398 3.51988 3.33398 3.75V16.25C3.33398 16.4801 3.52085 16.667 3.75098 16.667H16.251C16.4811 16.667 16.668 16.4801 16.668 16.25V3.75C16.668 3.51987 16.4811 3.33301 16.251 3.33301H3.75098ZM13.334 12.917C13.7942 12.917 14.168 13.2898 14.168 13.75C14.168 14.2102 13.7942 14.583 13.334 14.583H5.83398C5.3739 14.5828 5.00098 14.2101 5.00098 13.75C5.00098 13.2899 5.3739 12.9172 5.83398 12.917H13.334ZM10.834 9.16699C11.2942 9.16699 11.668 9.53976 11.668 10C11.668 10.4602 11.2942 10.833 10.834 10.833H5.83398C5.3739 10.8328 5.00098 10.4601 5.00098 10C5.00098 9.53987 5.3739 9.16717 5.83398 9.16699H10.834ZM14.168 5.41699C14.6281 5.41717 15.001 5.78987 15.001 6.25C15.001 6.71013 14.6281 7.08283 14.168 7.08301H5.83398C5.3739 7.08283 5.00098 6.71013 5.00098 6.25C5.00098 5.78987 5.3739 5.41717 5.83398 5.41699H14.168Z" fill="#6C658E"/>
</svg>
