<svg width="16" height="16" viewBox="0 0 16 16" fill="none" xmlns="http://www.w3.org/2000/svg">
<path d="M13.668 2C14.5883 2.00018 15.334 2.74663 15.334 3.66699V12.333C15.334 13.2534 14.5883 13.9998 13.668 14H4.00098C3.63279 14 3.33398 13.7012 3.33398 13.333C3.33416 12.965 3.6329 12.667 4.00098 12.667H13.668C13.8519 12.6668 14.001 12.517 14.001 12.333V7.33301H2.00098V9C2.00098 9.36819 1.70217 9.66699 1.33398 9.66699C0.965944 9.66682 0.667969 9.36808 0.667969 9V3.66699C0.667969 2.74663 1.41366 2.00018 2.33398 2H13.668ZM9.91602 8.12402C10.1757 7.93763 10.5362 7.96218 10.7695 8.18945L12.2637 9.64551C12.5271 9.90251 12.5323 10.3243 12.2754 10.5879C12.0185 10.8513 11.5966 10.8572 11.333 10.6006L10.2793 9.57324L8.0625 11.5117C7.80251 11.7389 7.41149 11.73 7.16211 11.4912L5.44336 9.84473L1.8457 13.4795C1.58668 13.7409 1.16491 13.7423 0.90332 13.4834C0.64179 13.2244 0.639524 12.8027 0.898438 12.541L4.95703 8.44043L5.00684 8.39551C5.26444 8.18287 5.64527 8.19281 5.8916 8.42871L7.64453 10.1064L9.86621 8.16504L9.91602 8.12402ZM2.33398 3.33301C2.15004 3.33318 2.00098 3.48301 2.00098 3.66699V6H14.001V3.66699C14.001 3.483 13.8519 3.33318 13.668 3.33301H2.33398ZM4.37109 4C4.73913 4.00018 5.03711 4.29891 5.03711 4.66699C5.03693 5.03492 4.73903 5.33283 4.37109 5.33301H3.7041C3.33602 5.33301 3.03729 5.03503 3.03711 4.66699C3.03711 4.2988 3.33591 4 3.7041 4H4.37109ZM12.3721 4C12.7403 4 13.0391 4.2988 13.0391 4.66699C13.0389 5.03503 12.7402 5.33301 12.3721 5.33301H6.37207C6.00399 5.33301 5.70525 5.03503 5.70508 4.66699C5.70508 4.2988 6.00388 4 6.37207 4H12.3721Z" fill="#6C658E"/>
</svg>
