<svg width="16" height="16" viewBox="0 0 16 16" fill="none" xmlns="http://www.w3.org/2000/svg">
<path d="M10 0.666992C10.0445 0.666996 10.089 0.670829 10.1328 0.679688C10.1574 0.68465 10.1806 0.693592 10.2041 0.701172C10.2199 0.706276 10.2365 0.7095 10.252 0.71582C10.2807 0.727578 10.3074 0.743287 10.334 0.758789C10.3455 0.765513 10.3579 0.770845 10.3691 0.77832C10.4061 0.802928 10.4404 0.831024 10.4717 0.862305L13.8047 4.19531C13.8355 4.22612 13.8624 4.26054 13.8867 4.29688C13.8986 4.3146 13.907 4.334 13.917 4.35254C13.9274 4.37175 13.9398 4.38987 13.9482 4.41016C13.9573 4.43197 13.9621 4.45505 13.9688 4.47754C13.9867 4.53782 14 4.60089 14 4.66699V14C14 14.7363 13.4032 15.3328 12.667 15.333H3.33301C2.59678 15.3328 2 14.7363 2 14V2C2 1.26373 2.59678 0.667168 3.33301 0.666992H10ZM3.33301 14H12.667V5.33301H10C9.63192 5.33301 9.33318 5.03503 9.33301 4.66699V2H3.33301V14ZM8 5.66699C8.36808 5.66699 8.66682 5.96497 8.66699 6.33301V6.76367C8.80793 6.80565 8.9429 6.86123 9.07129 6.92773L9.47168 6.52832C9.73201 6.26834 10.1538 6.26821 10.4141 6.52832C10.6744 6.78867 10.6744 7.21133 10.4141 7.47168L10.0312 7.85352C10.1163 8.00386 10.1851 8.16429 10.2354 8.33301H10.667C11.035 8.33318 11.333 8.63192 11.333 9C11.333 9.36808 11.035 9.66682 10.667 9.66699H10.2354C10.1892 9.8219 10.1274 9.96979 10.0518 10.1094L10.5117 10.5693C10.7719 10.8297 10.772 11.2514 10.5117 11.5117C10.2514 11.772 9.8297 11.7719 9.56934 11.5117L9.10938 11.0518C8.96979 11.1274 8.8219 11.1892 8.66699 11.2354V11.667C8.66682 12.035 8.36808 12.333 8 12.333C7.63192 12.333 7.33318 12.035 7.33301 11.667V11.2354C7.16429 11.1851 7.00386 11.1163 6.85352 11.0312L6.37402 11.5117C6.11367 11.7721 5.69101 11.7721 5.43066 11.5117C5.17055 11.2515 5.17068 10.8297 5.43066 10.5693L5.92773 10.0713C5.86127 9.94298 5.80661 9.80784 5.76465 9.66699H5.33301C4.96497 9.66682 4.66699 9.36808 4.66699 9C4.66699 8.63192 4.96497 8.33318 5.33301 8.33301H5.76465C5.8108 8.17812 5.87067 8.02921 5.94629 7.88965L5.52832 7.47168C5.26797 7.21133 5.26797 6.78867 5.52832 6.52832C5.78867 6.26797 6.21133 6.26797 6.47168 6.52832L6.88965 6.94629C7.02929 6.87063 7.17802 6.80983 7.33301 6.76367V6.33301C7.33318 5.96497 7.63192 5.66699 8 5.66699ZM8 8C7.44772 8 7 8.44772 7 9C7 9.55228 7.44772 10 8 10C8.55228 10 9 9.55228 9 9C9 8.44772 8.55228 8 8 8ZM10.667 4H11.7246L10.667 2.94238V4Z" fill="#6C658E"/>
</svg>
